<mxfile host="65bd71144e">
    <diagram id="OWvzI2N4adWCMlHb0skk" name="第 1 页">
        <mxGraphModel dx="1076" dy="715" grid="1" gridSize="10" guides="1" tooltips="1" connect="1" arrows="1" fold="1" page="1" pageScale="1" pageWidth="827" pageHeight="1169" math="0" shadow="0">
            <root>
                <mxCell id="0"/>
                <mxCell id="1" parent="0"/>
                <mxCell id="4" value="" style="edgeStyle=none;html=1;" parent="1" source="2" target="3" edge="1">
                    <mxGeometry relative="1" as="geometry"/>
                </mxCell>
                <mxCell id="2" value="AbstractBeanFactory&lt;br&gt;getBean" style="rounded=1;whiteSpace=wrap;html=1;" parent="1" vertex="1">
                    <mxGeometry x="354" y="10" width="120" height="60" as="geometry"/>
                </mxCell>
                <mxCell id="6" value="" style="edgeStyle=none;html=1;" parent="1" source="3" target="5" edge="1">
                    <mxGeometry relative="1" as="geometry"/>
                </mxCell>
                <mxCell id="3" value="doGetBean" style="whiteSpace=wrap;html=1;rounded=1;" parent="1" vertex="1">
                    <mxGeometry x="354" y="130" width="120" height="60" as="geometry"/>
                </mxCell>
                <mxCell id="8" value="" style="edgeStyle=none;html=1;" parent="1" source="5" target="7" edge="1">
                    <mxGeometry relative="1" as="geometry"/>
                </mxCell>
                <mxCell id="5" value="transformedBeanName" style="whiteSpace=wrap;html=1;rounded=1;" parent="1" vertex="1">
                    <mxGeometry x="346" y="260" width="136" height="50" as="geometry"/>
                </mxCell>
                <mxCell id="7" value="1、对于获取工厂类bean，将开始&amp;amp;截取掉&lt;br&gt;2、根据传入name，是否为alias，获取realname" style="shape=note;whiteSpace=wrap;html=1;backgroundOutline=1;darkOpacity=0.05;" parent="1" vertex="1">
                    <mxGeometry x="540" y="230" width="200" height="80" as="geometry"/>
                </mxCell>
                <mxCell id="9" value="singletonObjects" style="rounded=0;whiteSpace=wrap;html=1;" parent="1" vertex="1">
                    <mxGeometry x="10" y="20" width="160" height="40" as="geometry"/>
                </mxCell>
                <mxCell id="11" value="singletonsCurrentlyInCreation" style="rounded=0;whiteSpace=wrap;html=1;" parent="1" vertex="1">
                    <mxGeometry x="10" y="80" width="180" height="40" as="geometry"/>
                </mxCell>
                <mxCell id="12" value="earlySingletonObjects" style="rounded=0;whiteSpace=wrap;html=1;" parent="1" vertex="1">
                    <mxGeometry x="10" y="140" width="150" height="40" as="geometry"/>
                </mxCell>
                <mxCell id="13" value="singletonFactories::ObjectFactory" style="rounded=0;whiteSpace=wrap;html=1;" parent="1" vertex="1">
                    <mxGeometry x="10" y="200" width="190" height="40" as="geometry"/>
                </mxCell>
                <mxCell id="15" value="factoryBeanObjectCache" style="rounded=0;whiteSpace=wrap;html=1;" parent="1" vertex="1">
                    <mxGeometry x="10" y="270" width="190" height="40" as="geometry"/>
                </mxCell>
                <mxCell id="16" value="prototypesCurrentlyInCreation" style="rounded=0;whiteSpace=wrap;html=1;" parent="1" vertex="1">
                    <mxGeometry x="10" y="340" width="210" height="50" as="geometry"/>
                </mxCell>
                <mxCell id="17" value="alreadyCreated" style="rounded=0;whiteSpace=wrap;html=1;" parent="1" vertex="1">
                    <mxGeometry x="10" y="420" width="110" height="40" as="geometry"/>
                </mxCell>
                <mxCell id="18" value="mergedBeanDefinitions" style="rounded=0;whiteSpace=wrap;html=1;" parent="1" vertex="1">
                    <mxGeometry x="10" y="490" width="150" height="40" as="geometry"/>
                </mxCell>
                <mxCell id="19" value="factoryBeanInstanceCache" style="rounded=0;whiteSpace=wrap;html=1;" vertex="1" parent="1">
                    <mxGeometry x="5" y="560" width="165" height="50" as="geometry"/>
                </mxCell>
            </root>
        </mxGraphModel>
    </diagram>
</mxfile>